<svg width="82" height="42" viewBox="0 0 82 42" fill="none" xmlns="http://www.w3.org/2000/svg">
<path d="M12.7668 13.1028H12.7641C10.4352 13.1028 8.5473 14.8304 8.5473 16.9615V16.964C8.5473 19.0951 10.4352 20.8227 12.7641 20.8227H12.7668C15.0957 20.8227 16.9836 19.0951 16.9836 16.964V16.9615C16.9836 14.8304 15.0957 13.1028 12.7668 13.1028Z" fill="#2196F3"/>
<path d="M43.8909 11.8693C43.8843 8.90929 42.5966 6.07223 40.3097 3.97895C38.0227 1.88568 34.9228 0.706672 31.6882 0.699951V0.699951C28.4526 0.705328 25.3513 1.88374 23.0631 3.97716C20.775 6.07058 19.4865 8.90841 19.4799 11.8693V11.8693V28.1921C19.4799 28.1921 43.8881 25.7044 43.8909 11.8718V11.8693Z" fill="#2196F3"/>
<path d="M0 33.5495C0.00586666 35.6091 0.902338 37.5828 2.49352 39.0394C4.0847 40.496 6.24123 41.317 8.49186 41.3231C10.742 41.317 12.8981 40.4963 14.4892 39.0403C16.0803 37.5843 16.9771 35.6112 16.9837 33.552V22.1943C16.9837 22.1943 0 23.9266 0 33.5495ZM8.49186 35.5844C8.05205 35.5844 7.62211 35.4651 7.25642 35.2415C6.89073 35.0179 6.60571 34.7001 6.4374 34.3282C6.2691 33.9564 6.22506 33.5472 6.31086 33.1525C6.39666 32.7577 6.60845 32.3951 6.91945 32.1105C7.23044 31.8259 7.62667 31.6321 8.05803 31.5536C8.48939 31.4751 8.93651 31.5154 9.34285 31.6694C9.74918 31.8234 10.0965 32.0843 10.3408 32.4189C10.5852 32.7535 10.7156 33.147 10.7156 33.5495C10.7167 33.8173 10.66 34.0828 10.5487 34.3306C10.4375 34.5783 10.2738 34.8036 10.0672 34.9933C9.86063 35.1831 9.61511 35.3337 9.34477 35.4364C9.07443 35.5392 8.78459 35.5921 8.49186 35.5921V35.5844Z" fill="#2196F3"/>
<path d="M24.0529 31.9413V36.2069H23.174V31.9413H24.0529ZM25.7521 33.7635V34.4491H23.8127V33.7635H25.7521ZM25.9572 31.9413V32.6298H23.8127V31.9413H25.9572ZM29.9709 33.9745V34.1766C29.9709 34.5009 29.9269 34.7919 29.8391 35.0497C29.7512 35.3075 29.6271 35.5272 29.467 35.7089C29.3068 35.8885 29.1154 36.0262 28.8928 36.1219C28.6721 36.2177 28.4269 36.2655 28.1574 36.2655C27.8898 36.2655 27.6447 36.2177 27.4221 36.1219C27.2014 36.0262 27.0099 35.8885 26.8478 35.7089C26.6857 35.5272 26.5598 35.3075 26.4699 35.0497C26.382 34.7919 26.3381 34.5009 26.3381 34.1766V33.9745C26.3381 33.6483 26.382 33.3573 26.4699 33.1014C26.5578 32.8436 26.6818 32.6239 26.842 32.4423C27.0041 32.2606 27.1955 32.1219 27.4162 32.0262C27.6389 31.9305 27.884 31.8827 28.1516 31.8827C28.4211 31.8827 28.6662 31.9305 28.8869 32.0262C29.1096 32.1219 29.301 32.2606 29.4611 32.4423C29.6232 32.6239 29.7482 32.8436 29.8361 33.1014C29.926 33.3573 29.9709 33.6483 29.9709 33.9745ZM29.0832 34.1766V33.9686C29.0832 33.7421 29.0627 33.5428 29.0217 33.371C28.9807 33.1991 28.9201 33.0546 28.84 32.9374C28.7599 32.8202 28.6623 32.7323 28.5471 32.6737C28.4318 32.6132 28.3 32.5829 28.1516 32.5829C28.0031 32.5829 27.8713 32.6132 27.756 32.6737C27.6428 32.7323 27.5461 32.8202 27.466 32.9374C27.3879 33.0546 27.3283 33.1991 27.2873 33.371C27.2463 33.5428 27.2258 33.7421 27.2258 33.9686V34.1766C27.2258 34.4012 27.2463 34.6005 27.2873 34.7743C27.3283 34.9462 27.3889 35.0917 27.4689 35.2108C27.549 35.328 27.6467 35.4169 27.7619 35.4774C27.8771 35.538 28.009 35.5682 28.1574 35.5682C28.3058 35.5682 28.4377 35.538 28.5529 35.4774C28.6682 35.4169 28.7648 35.328 28.843 35.2108C28.9211 35.0917 28.9807 34.9462 29.0217 34.7743C29.0627 34.6005 29.0832 34.4012 29.0832 34.1766ZM32.8244 35.0907C32.8244 35.0145 32.8127 34.9462 32.7892 34.8856C32.7678 34.8231 32.7267 34.7665 32.6662 34.7157C32.6057 34.663 32.5207 34.6112 32.4113 34.5604C32.3019 34.5096 32.1603 34.4569 31.9865 34.4022C31.7932 34.3397 31.6096 34.2694 31.4357 34.1913C31.2639 34.1132 31.1115 34.0223 30.9787 33.9188C30.8478 33.8134 30.7443 33.6913 30.6682 33.5526C30.5939 33.4139 30.5568 33.2528 30.5568 33.0692C30.5568 32.8915 30.5959 32.7303 30.674 32.5858C30.7521 32.4393 30.8615 32.3143 31.0021 32.2108C31.1428 32.1053 31.3088 32.0243 31.5002 31.9677C31.6935 31.911 31.9055 31.8827 32.1359 31.8827C32.4504 31.8827 32.7248 31.9393 32.9592 32.0526C33.1935 32.1659 33.3752 32.3212 33.5041 32.5184C33.6349 32.7157 33.7004 32.9413 33.7004 33.1952H32.8273C32.8273 33.0702 32.801 32.9608 32.7482 32.8671C32.6974 32.7714 32.6193 32.6962 32.5139 32.6415C32.4103 32.5868 32.2795 32.5594 32.1213 32.5594C31.9689 32.5594 31.842 32.5829 31.7404 32.6298C31.6389 32.6747 31.5627 32.7362 31.5119 32.8143C31.4611 32.8905 31.4357 32.9764 31.4357 33.0721C31.4357 33.1444 31.4533 33.2098 31.4885 33.2684C31.5256 33.327 31.5803 33.3817 31.6525 33.4325C31.7248 33.4833 31.8137 33.5311 31.9191 33.576C32.0246 33.621 32.1467 33.6649 32.2853 33.7079C32.5178 33.7782 32.7219 33.8573 32.8976 33.9452C33.0754 34.0331 33.2238 34.1317 33.343 34.2411C33.4621 34.3505 33.5519 34.4745 33.6125 34.6132C33.673 34.7518 33.7033 34.9091 33.7033 35.0848C33.7033 35.2704 33.6672 35.4364 33.5949 35.5829C33.5226 35.7294 33.4182 35.8534 33.2814 35.955C33.1447 36.0565 32.9816 36.1337 32.7922 36.1864C32.6027 36.2391 32.3908 36.2655 32.1564 36.2655C31.9455 36.2655 31.7375 36.2382 31.5324 36.1835C31.3273 36.1268 31.1408 36.0419 30.9728 35.9286C30.8068 35.8153 30.674 35.6708 30.5744 35.495C30.4748 35.3192 30.425 35.1112 30.425 34.871H31.3068C31.3068 35.0038 31.3273 35.1161 31.3683 35.2079C31.4094 35.2997 31.467 35.3739 31.5412 35.4305C31.6174 35.4872 31.7072 35.5282 31.8107 35.5536C31.9162 35.579 32.0314 35.5917 32.1564 35.5917C32.3088 35.5917 32.4338 35.5702 32.5314 35.5272C32.631 35.4843 32.7043 35.4247 32.7512 35.3485C32.8 35.2723 32.8244 35.1864 32.8244 35.0907ZM36.2082 31.9413V36.2069H35.3322V31.9413H36.2082ZM37.5207 31.9413V32.6298H34.0402V31.9413H37.5207ZM40.884 35.5214V36.2069H38.6135V35.5214H40.884ZM38.9006 31.9413V36.2069H38.0217V31.9413H38.9006ZM40.5881 33.6786V34.3466H38.6135V33.6786H40.5881ZM40.881 31.9413V32.6298H38.6135V31.9413H40.881ZM41.3967 31.9413H42.9875C43.3137 31.9413 43.5939 31.9901 43.8283 32.0878C44.0646 32.1854 44.2463 32.33 44.3732 32.5214C44.5002 32.7128 44.5637 32.9481 44.5637 33.2274C44.5637 33.4559 44.5246 33.6522 44.4465 33.8163C44.3703 33.9784 44.2619 34.1141 44.1213 34.2235C43.9826 34.3309 43.8195 34.4169 43.632 34.4813L43.3537 34.6278H41.9709L41.965 33.9423H42.9933C43.1476 33.9423 43.2756 33.9149 43.3771 33.8602C43.4787 33.8055 43.5549 33.7294 43.6057 33.6317C43.6584 33.5341 43.6848 33.4208 43.6848 33.2919C43.6848 33.1552 43.6594 33.037 43.6086 32.9374C43.5578 32.8378 43.4807 32.7616 43.3771 32.7089C43.2736 32.6561 43.1437 32.6298 42.9875 32.6298H42.2756V36.2069H41.3967V31.9413ZM43.7814 36.2069L42.8088 34.3055L43.7375 34.2997L44.7219 36.1659V36.2069H43.7814ZM48.3957 34.6864H47.3088V34.0009H48.3957C48.5637 34.0009 48.7004 33.9735 48.8058 33.9188C48.9113 33.8622 48.9885 33.7841 49.0373 33.6844C49.0861 33.5848 49.1105 33.4725 49.1105 33.3475C49.1105 33.2206 49.0861 33.1024 49.0373 32.993C48.9885 32.8837 48.9113 32.7958 48.8058 32.7294C48.7004 32.663 48.5637 32.6298 48.3957 32.6298H47.6135V36.2069H46.7346V31.9413H48.3957C48.7297 31.9413 49.0158 32.0018 49.2541 32.1229C49.4943 32.2421 49.6779 32.4071 49.8049 32.618C49.9318 32.829 49.9953 33.0702 49.9953 33.3417C49.9953 33.6171 49.9318 33.8553 49.8049 34.0565C49.6779 34.2577 49.4943 34.413 49.2541 34.5223C49.0158 34.6317 48.7297 34.6864 48.3957 34.6864ZM53.4641 35.5214V36.2069H51.1935V35.5214H53.4641ZM51.4807 31.9413V36.2069H50.6017V31.9413H51.4807ZM53.1682 33.6786V34.3466H51.1935V33.6786H53.1682ZM53.4611 31.9413V32.6298H51.1935V31.9413H53.4611ZM55.9426 31.9413V36.2069H55.0666V31.9413H55.9426ZM57.2551 31.9413V32.6298H53.7746V31.9413H57.2551ZM60.6183 35.5214V36.2069H58.3478V35.5214H60.6183ZM58.6349 31.9413V36.2069H57.756V31.9413H58.6349ZM60.3224 33.6786V34.3466H58.3478V33.6786H60.3224ZM60.6154 31.9413V32.6298H58.3478V31.9413H60.6154ZM61.131 31.9413H62.7219C63.048 31.9413 63.3283 31.9901 63.5627 32.0878C63.799 32.1854 63.9807 32.33 64.1076 32.5214C64.2346 32.7128 64.298 32.9481 64.298 33.2274C64.298 33.4559 64.259 33.6522 64.1808 33.8163C64.1047 33.9784 63.9963 34.1141 63.8557 34.2235C63.717 34.3309 63.5539 34.4169 63.3664 34.4813L63.0881 34.6278H61.7053L61.6994 33.9423H62.7277C62.882 33.9423 63.0099 33.9149 63.1115 33.8602C63.2131 33.8055 63.2892 33.7294 63.34 33.6317C63.3928 33.5341 63.4191 33.4208 63.4191 33.2919C63.4191 33.1552 63.3937 33.037 63.343 32.9374C63.2922 32.8378 63.215 32.7616 63.1115 32.7089C63.008 32.6561 62.8781 32.6298 62.7219 32.6298H62.0099V36.2069H61.131V31.9413ZM63.5158 36.2069L62.5432 34.3055L63.4719 34.2997L64.4562 36.1659V36.2069H63.5158ZM67.1955 35.0907C67.1955 35.0145 67.1838 34.9462 67.1603 34.8856C67.1389 34.8231 67.0978 34.7665 67.0373 34.7157C66.9767 34.663 66.8918 34.6112 66.7824 34.5604C66.673 34.5096 66.5314 34.4569 66.3576 34.4022C66.1642 34.3397 65.9807 34.2694 65.8068 34.1913C65.6349 34.1132 65.4826 34.0223 65.3498 33.9188C65.2189 33.8134 65.1154 33.6913 65.0392 33.5526C64.965 33.4139 64.9279 33.2528 64.9279 33.0692C64.9279 32.8915 64.967 32.7303 65.0451 32.5858C65.1232 32.4393 65.2326 32.3143 65.3732 32.2108C65.5139 32.1053 65.6799 32.0243 65.8713 31.9677C66.0646 31.911 66.2766 31.8827 66.507 31.8827C66.8215 31.8827 67.0959 31.9393 67.3303 32.0526C67.5646 32.1659 67.7463 32.3212 67.8752 32.5184C68.006 32.7157 68.0715 32.9413 68.0715 33.1952H67.1984C67.1984 33.0702 67.1721 32.9608 67.1193 32.8671C67.0685 32.7714 66.9904 32.6962 66.8849 32.6415C66.7814 32.5868 66.6506 32.5594 66.4924 32.5594C66.34 32.5594 66.2131 32.5829 66.1115 32.6298C66.0099 32.6747 65.9338 32.7362 65.883 32.8143C65.8322 32.8905 65.8068 32.9764 65.8068 33.0721C65.8068 33.1444 65.8244 33.2098 65.8596 33.2684C65.8967 33.327 65.9514 33.3817 66.0236 33.4325C66.0959 33.4833 66.1848 33.5311 66.2902 33.576C66.3957 33.621 66.5178 33.6649 66.6564 33.7079C66.8889 33.7782 67.093 33.8573 67.2687 33.9452C67.4465 34.0331 67.5949 34.1317 67.7141 34.2411C67.8332 34.3505 67.923 34.4745 67.9836 34.6132C68.0441 34.7518 68.0744 34.9091 68.0744 35.0848C68.0744 35.2704 68.0383 35.4364 67.966 35.5829C67.8937 35.7294 67.7892 35.8534 67.6525 35.955C67.5158 36.0565 67.3527 36.1337 67.1633 36.1864C66.9738 36.2391 66.7619 36.2655 66.5275 36.2655C66.3166 36.2655 66.1086 36.2382 65.9035 36.1835C65.6984 36.1268 65.5119 36.0419 65.3439 35.9286C65.1779 35.8153 65.0451 35.6708 64.9455 35.495C64.8459 35.3192 64.7961 35.1112 64.7961 34.871H65.6779C65.6779 35.0038 65.6984 35.1161 65.7394 35.2079C65.7805 35.2997 65.8381 35.3739 65.9123 35.4305C65.9885 35.4872 66.0783 35.5282 66.1818 35.5536C66.2873 35.579 66.4025 35.5917 66.5275 35.5917C66.6799 35.5917 66.8049 35.5702 66.9025 35.5272C67.0021 35.4843 67.0754 35.4247 67.1223 35.3485C67.1711 35.2723 67.1955 35.1864 67.1955 35.0907Z" fill="#2196F3"/>
</svg>
